<?xml version="1.0" encoding="UTF-8"?>
<svg version="1.1" xmlns="http://www.w3.org/2000/svg" width="2000" height="1500">
<path d="M0 0 C660 0 1320 0 2000 0 C2000 495 2000 990 2000 1500 C1340 1500 680 1500 0 1500 C0 1005 0 510 0 0 Z " fill="#F1EAD6" transform="translate(0,0)"/>
<path d="M0 0 C3.51371503 1.81393628 6.58730436 4.21550056 9.72119141 6.61035156 C11.03931348 7.60371892 12.35828431 8.59596136 13.67822266 9.58691406 C14.25161377 10.02342285 14.82500488 10.45993164 15.41577148 10.90966797 C18.39888861 13.05907337 20.40563051 13.09436516 24.03369141 13.04785156 C25.39880859 13.03431641 25.39880859 13.03431641 26.79150391 13.02050781 C27.49017578 13.00890625 28.18884766 12.99730469 28.90869141 12.98535156 C29.05540886 16.4849014 29.14322728 19.9836486 29.22119141 23.48535156 C29.26308594 24.46761719 29.30498047 25.44988281 29.34814453 26.46191406 C29.46121763 33.24629976 28.42022604 37.79047643 23.90869141 42.98535156 C19.71584688 46.15555108 15.80649541 47.09172143 10.62524414 47.15893555 C9.36628578 47.1791703 9.36628578 47.1791703 8.08189392 47.19981384 C7.17782303 47.21025223 6.27375214 47.22069061 5.34228516 47.23144531 C3.39110993 47.26445074 1.43993815 47.29766099 -0.51123047 47.33105469 C-3.55799338 47.37790556 -6.60474993 47.42220831 -9.65161133 47.4621582 C-27.18401424 47.70292058 -44.38214325 48.66980097 -61.59130859 52.23535156 C-62.64535889 52.45151123 -63.69940918 52.6676709 -64.78540039 52.89038086 C-96.46523934 59.61979761 -125.26090645 73.85395042 -153.09130859 89.98535156 C-154.5441626 90.82525635 -154.5441626 90.82525635 -156.02636719 91.68212891 C-168.94255332 99.15628376 -181.80451522 106.72502845 -194.6237793 114.36425781 C-204.02696993 119.96656683 -204.02696993 119.96656683 -208.70849609 122.61035156 C-217.28232459 127.48965475 -224.06600355 133.15927159 -231.09130859 139.98535156 C-232.35243957 141.10058699 -233.62229931 142.20609365 -234.90380859 143.29785156 C-239.41699457 147.21053046 -243.75701415 151.3080053 -248.11010742 155.39672852 C-250.97122283 158.08179904 -253.838475 160.75627851 -256.74633789 163.39086914 C-264.22849398 170.17466576 -271.44621089 177.18498723 -278.57495117 184.33862305 C-280.41585568 186.18493403 -282.26211131 188.0257743 -284.10888672 189.86621094 C-289.97838926 195.73172069 -295.79255421 201.58974696 -301.09130859 207.98535156 C-301.58767822 208.58033447 -302.08404785 209.17531738 -302.59545898 209.78833008 C-322.75045926 234.20250022 -338.72886616 261.02693014 -349.09130859 290.98535156 C-349.48833984 292.1184375 -349.88537109 293.25152344 -350.29443359 294.41894531 C-356.67233463 313.88166712 -359.28518024 333.82095072 -361.32053375 354.11924744 C-361.67529621 357.61722948 -362.04842615 361.11324173 -362.42089844 364.609375 C-363.02645123 370.30433827 -363.62722176 375.99977063 -364.22265625 381.69580078 C-365.40075638 392.95325297 -366.5879297 404.20933389 -367.85281372 415.45742798 C-368.09230627 417.6171236 -368.32495973 419.77759025 -368.55026245 421.93881226 C-369.71338521 433.08833589 -370.84546322 442.93207441 -376.09130859 452.98535156 C-376.60177734 454.13132812 -377.11224609 455.27730469 -377.63818359 456.45800781 C-378.03521484 457.31265625 -378.43224609 458.16730469 -378.84130859 459.04785156 C-383.47742242 469.03897028 -382.01299609 477.79511765 -380.34130859 488.39550781 C-380.16374023 489.56238632 -379.98617187 490.72926483 -379.80322266 491.9315033 C-379.23889557 495.63795265 -378.66606944 499.34300682 -378.09130859 503.04785156 C-377.51681081 506.75630225 -376.94440425 510.46500268 -376.37939453 514.1749115 C-376.02888676 516.47636118 -375.67303408 518.7770052 -375.31103516 521.07667542 C-374.44099121 526.78839031 -373.89582866 532.20778514 -374.09130859 537.98535156 C-376.73130859 537.65535156 -379.37130859 537.32535156 -382.09130859 536.98535156 C-383.82058835 538.50525934 -383.82058835 538.50525934 -385.09130859 540.98535156 C-384.99773199 546.78710114 -384.02661013 550.50348037 -380.09130859 554.98535156 C-377.61560354 556.21535355 -377.61560354 556.21535355 -375.09130859 555.98535156 C-373.38254399 554.61020615 -373.38254399 554.61020615 -372.09130859 552.98535156 C-371.43130859 552.98535156 -370.77130859 552.98535156 -370.09130859 552.98535156 C-364.94622056 564.12669035 -360.09368714 575.34305094 -355.52880859 586.73535156 C-341.21199848 622.28661219 -317.81329045 646.33233123 -291.09130859 673.11035156 C-290.36344147 673.84089752 -289.63557434 674.57144348 -288.88565063 675.3241272 C-286.76969034 677.4459846 -284.64992204 679.5639592 -282.52880859 681.68066406 C-281.89899582 682.31245071 -281.26918304 682.94423737 -280.62028503 683.59516907 C-276.81482806 687.38124304 -272.89215964 690.9768261 -268.82092285 694.47592163 C-265.90591341 697.0198429 -263.25189557 699.80443883 -260.56005859 702.57910156 C-257.8695869 705.20146005 -255.06033537 707.64520126 -252.22363281 710.10693359 C-248.70216243 713.20908531 -245.30773065 716.44292181 -241.90380859 719.67285156 C-236.82576404 724.47270759 -231.73675381 729.25778977 -226.59130859 733.98535156 C-222.32734562 737.91102221 -218.07487469 741.84872492 -213.84399414 745.81005859 C-212.38945357 747.17169406 -210.93130043 748.52948118 -209.46948242 749.88330078 C-205.92268819 753.19555989 -202.52875798 756.54754501 -199.31787109 760.18847656 C-193.65479966 767.05522287 -193.65479966 767.05522287 -185.87255859 770.54785156 C-182.64479407 770.09140001 -180.0805843 769.27310452 -177.09130859 767.98535156 C-176.21990234 767.664375 -175.34849609 767.34339844 -174.45068359 767.01269531 C-170.64300433 765.49576503 -167.87752662 764.0319638 -165.09130859 760.98535156 C-164.09130859 761.98535156 -164.09130859 761.98535156 -163.59130859 764.54785156 C-164.44911106 770.44524354 -169.01257384 773.90661681 -173.09130859 777.98535156 C-144.3466364 796.03082729 -115.72273165 802.9364519 -82.15209961 805.6484375 C-67.43197398 806.85796747 -52.94382946 808.6311608 -38.40380859 811.23535156 C-37.54432617 811.38642365 -36.68484375 811.53749573 -35.79931641 811.69314575 C-23.96924286 813.77564493 -12.26456421 816.1095993 -0.65112305 819.20703125 C8.61529547 821.63587407 15.72241275 820.98115123 24.97119141 818.67285156 C36.0925667 816.03195275 47.14742618 814.90977352 58.52416992 814.15014648 C59.78672607 814.0532251 61.04928223 813.95630371 62.35009766 813.85644531 C64.03147827 813.74707642 64.03147827 813.74707642 65.74682617 813.63549805 C72.06737497 812.3358593 76.00781289 808.06683106 80.19775391 803.47363281 C81.90869141 801.98535156 81.90869141 801.98535156 85.90869141 800.98535156 C86.23869141 796.69535156 86.56869141 792.40535156 86.90869141 787.98535156 C88.55869141 789.30535156 90.20869141 790.62535156 91.90869141 791.98535156 C91.766644 790.40167409 91.61988988 788.81841839 91.47119141 787.23535156 C91.38998047 786.35363281 91.30876953 785.47191406 91.22509766 784.56347656 C90.94630676 782.29184704 90.52078564 780.18683333 89.90869141 777.98535156 C95.53367071 782.37283542 99.21489732 786.89668 102.90869141 792.98535156 C103.46556641 792.20160156 104.02244141 791.41785156 104.59619141 790.61035156 C106.98537706 787.89830298 108.50942554 787.02401613 111.90869141 785.98535156 C112.56869141 786.64535156 113.22869141 787.30535156 113.90869141 787.98535156 C114.56869141 784.68535156 115.22869141 781.38535156 115.90869141 777.98535156 C117.22869141 777.98535156 118.54869141 777.98535156 119.90869141 777.98535156 C120.56869141 779.96535156 121.22869141 781.94535156 121.90869141 783.98535156 C124.88234209 781.43650812 126.23584041 778.48313092 127.90869141 774.98535156 C128.90869141 773.98535156 128.90869141 773.98535156 132.50634766 773.88769531 C133.99466008 773.89436936 135.48295573 773.90632973 136.97119141 773.92285156 C137.72980469 773.92736328 138.48841797 773.931875 139.27001953 773.93652344 C141.14961012 773.94834476 143.02916039 773.96628079 144.90869141 773.98535156 C144.87613932 776.03613281 144.84358724 778.08691406 144.81103516 780.13769531 C144.70307957 782.00267298 144.70307957 782.00267298 145.90869141 782.98535156 C151.35955676 783.09891126 153.69908557 781.60057677 157.72119141 777.92285156 C158.47013672 777.189375 159.21908203 776.45589844 159.99072266 775.70019531 C161.90869141 773.98535156 161.90869141 773.98535156 163.90869141 773.98535156 C165.12744141 775.48144531 165.12744141 775.48144531 166.40869141 777.42285156 C168.1952277 780.21067003 168.1952277 780.21067003 170.90869141 781.98535156 C185.1722435 783.83433054 199.32308816 770.57188277 210.40869141 762.98535156 C212.21257819 761.75816692 214.01677898 760.53144372 215.82128906 759.30517578 C227.5869594 751.29945756 239.33367095 743.26521415 250.90869141 734.98535156 C251.64522949 734.4590918 252.38176758 733.93283203 253.140625 733.390625 C258.41565348 729.61483892 263.66820627 725.80890587 268.90869141 721.98535156 C269.66472656 721.43411621 270.42076172 720.88288086 271.19970703 720.31494141 C282.28954342 712.21711859 293.24691247 703.95521185 304.15478516 695.61425781 C307.89061027 692.758313 311.64141025 689.9246446 315.40869141 687.11035156 C322.90125084 681.50685102 330.33462958 675.82509799 337.66650391 670.01269531 C338.29121582 669.51817871 338.91592773 669.02366211 339.55957031 668.51416016 C340.75932641 667.5627824 341.9570467 666.6088295 343.15234375 665.65185547 C346.28250963 663.16886633 349.42975763 660.95198763 352.90869141 658.98535156 C353.23869141 661.95535156 353.56869141 664.92535156 353.90869141 667.98535156 C355.22869141 663.69535156 356.54869141 659.40535156 357.90869141 654.98535156 C360.35009766 655.40852865 362.79150391 655.83170573 365.23291016 656.25488281 C369.18781926 655.85650511 370.3986094 653.97643157 372.90869141 650.98535156 C374.32559102 648.99367191 375.69901441 646.97054042 377.03369141 644.92285156 C385.11959851 632.89213757 395.50693899 621.6171992 407.90869141 613.98535156 C392.16881759 663.46856691 365.31186829 711.33037246 331.47119141 750.54785156 C330.97151855 751.12784912 330.4718457 751.70784668 329.95703125 752.30541992 C327.95065236 754.63057881 325.94006603 756.95013888 323.89697266 759.24316406 C320.13175284 763.74684103 319.20617717 767.52795123 318.38134766 773.30175781 C317.36545696 779.06966616 315.63035844 782.75964699 310.83056641 786.17675781 C306.56515256 788.47556686 302.60680592 788.50917449 297.84619141 788.48535156 C291.50916802 788.45379792 287.92178433 788.94279343 282.90869141 792.98535156 C283.23869141 795.95535156 283.56869141 798.92535156 283.90869141 801.98535156 C282.95994141 801.49035156 282.01119141 800.99535156 281.03369141 800.48535156 C270.9463794 796.30574818 261.51506901 800.39897059 251.90869141 803.98535156 C251.50256606 807.81788963 251.50256606 807.81788963 253.22900391 809.70410156 C253.82455078 810.29191406 254.42009766 810.87972656 255.03369141 811.48535156 C260.10716561 817.01347518 265.26791215 824.45617827 265.28369141 832.23535156 C265.15994141 833.14285156 265.03619141 834.05035156 264.90869141 834.98535156 C262.90869141 834.98535156 262.90869141 834.98535156 261.35791016 833.44628906 C260.77654297 832.75792969 260.19517578 832.06957031 259.59619141 831.36035156 C258.98001953 830.63589844 258.36384766 829.91144531 257.72900391 829.16503906 C257.12830078 828.44574219 256.52759766 827.72644531 255.90869141 826.98535156 C255.39048828 826.36917969 254.87228516 825.75300781 254.33837891 825.11816406 C253.18910306 823.74560033 252.04793531 822.36625326 250.90869141 820.98535156 C237.54638001 825.89490098 226.54483878 839.44308198 217.56494141 850.11816406 C214.83435645 853.1965122 211.82121695 855.99025436 208.82666016 858.80957031 C204.93018122 863.22981221 204.60638946 867.54306964 204.28369141 873.29785156 C204.20892578 874.55210937 204.13416016 875.80636719 204.05712891 877.09863281 C204.00814453 878.05125 203.95916016 879.00386719 203.90869141 879.98535156 C203.35407227 880.0051709 202.79945313 880.02499023 202.22802734 880.04541016 C199.70445447 880.14092808 197.18167917 880.25049723 194.65869141 880.36035156 C193.78599609 880.39128906 192.91330078 880.42222656 192.01416016 880.45410156 C190.74765625 880.51210937 190.74765625 880.51210937 189.45556641 880.57128906 C188.68051758 880.60270996 187.90546875 880.63413086 187.10693359 880.66650391 C183.96728985 881.1218987 181.65065926 882.01839991 179.69775391 884.56347656 C178.50007605 888.2395175 178.43670495 891.89088624 178.28369141 895.73535156 C178.24501953 896.528125 178.20634766 897.32089844 178.16650391 898.13769531 C178.0725834 900.08654572 177.98956318 902.03591607 177.90869141 903.98535156 C171.61193481 903.04891084 168.10343141 899.73128198 164.19775391 894.84472656 C163.16987303 893.45081982 162.15904609 892.0440809 161.17041016 890.62207031 C159.98922798 888.8442282 159.98922798 888.8442282 157.90869141 887.98535156 C144.56676419 887.87861614 130.84861757 891.12012468 118.90869141 896.98535156 C118.24869141 896.98535156 117.58869141 896.98535156 116.90869141 896.98535156 C117.23869141 897.64535156 117.56869141 898.30535156 117.90869141 898.98535156 C117.94891531 901.31833816 117.95189388 903.65241822 117.90869141 905.98535156 C114.25796123 907.81071665 110.61133617 907.4776448 106.78759766 906.37207031 C100.50207661 903.96597709 94.51634812 900.8651298 88.5300293 897.80371094 C80.15261699 893.52483089 73.2235724 891.80780383 63.72119141 891.86035156 C63.01027344 891.85648438 62.29935547 891.85261719 61.56689453 891.84863281 C58.41307256 891.85456663 55.92199746 891.98091621 52.90869141 892.98535156 C48.23051902 893.31950673 44.53009018 892.99410105 40.03369141 891.67285156 C35.11120646 890.23428602 30.20753409 889.22049683 25.15869141 888.36035156 C24.4692041 888.23748779 23.7797168 888.11462402 23.06933594 887.98803711 C9.95439405 885.82211625 -3.39595688 885.7804717 -16.65380859 885.79785156 C-17.44255371 885.79812347 -18.23129883 885.79839539 -19.04394531 885.79867554 C-30.84521853 885.81729 -42.47458896 886.25993036 -54.20361328 887.64697266 C-58.92465149 888.2001819 -63.65189418 888.69515768 -68.37841797 889.19897461 C-70.8880298 889.46797562 -73.39717312 889.74139377 -75.90576172 890.01977539 C-77.04207031 890.14505615 -78.17837891 890.27033691 -79.34912109 890.39941406 C-80.36119629 890.51236816 -81.37327148 890.62532227 -82.41601562 890.74169922 C-85.09130859 890.98535156 -85.09130859 890.98535156 -89.09130859 890.98535156 C-89.09130859 886.69535156 -89.09130859 882.40535156 -89.09130859 877.98535156 C-90.41130859 878.97535156 -91.73130859 879.96535156 -93.09130859 880.98535156 C-99.07843303 881.83000629 -102.41282372 879.96978386 -107.06787109 876.50488281 C-114.56597429 871.22368389 -122.33147071 866.8845114 -130.46630859 862.67285156 C-132.57109117 861.57706477 -134.67531441 860.48020955 -136.77946472 859.38320923 C-138.187712 858.64941881 -139.59657262 857.91680422 -141.00605774 857.18539429 C-145.42872762 854.88267516 -149.78736993 852.49277594 -154.12646484 850.03613281 C-164.62679877 844.16166627 -173.02383722 839.72434914 -185.18505859 839.98535156 C-201.73050081 839.98535156 -217.49732536 831.32582683 -230.22460938 821.39892578 C-238.36976891 815.1602403 -246.88427614 813.92781991 -256.98583984 813.77441406 C-258.27167969 813.74605469 -259.55751953 813.71769531 -260.88232422 813.68847656 C-263.55165972 813.6338743 -266.22040236 813.59228952 -268.89013672 813.55566406 C-286.33959197 813.13708643 -298.71515832 807.29759744 -311.09130859 794.98535156 C-311.70619141 794.40527344 -312.32107422 793.82519531 -312.95458984 793.22753906 C-325.42292127 780.44391649 -331.83373812 760.67806328 -334.59130859 743.42285156 C-335.92167487 735.56586483 -338.29941847 729.94487556 -344.65380859 724.98535156 C-347.13436356 723.96768799 -349.46299848 723.47515311 -352.09130859 722.98535156 C-352.3366333 722.21795654 -352.58195801 721.45056152 -352.8347168 720.65991211 C-358.81087043 702.07739975 -365.42530279 683.95135044 -373.09130859 665.98535156 C-373.57937988 664.83728027 -374.06745117 663.68920898 -374.5703125 662.50634766 C-380.71573126 648.09016149 -387.07158336 633.77241425 -393.49795532 619.47964478 C-393.8587619 618.67715302 -394.21956848 617.87466125 -394.59130859 617.04785156 C-394.94993988 616.25027435 -395.30857117 615.45269714 -395.67807007 614.63095093 C-400.76554724 603.30556349 -405.73151015 591.93679449 -410.52880859 580.48535156 C-410.93897217 579.50853928 -410.93897217 579.50853928 -411.35742188 578.51199341 C-416.90340911 565.28126937 -419.2650996 554.79908682 -419.15380859 540.48535156 C-419.14929688 539.37675781 -419.14478516 538.26816406 -419.14013672 537.12597656 C-419.12844017 534.41237757 -419.11204945 531.69889396 -419.09130859 528.98535156 C-417.07307943 529.01993815 -415.05485026 529.05452474 -413.03662109 529.08911133 C-411.00112257 529.11757264 -411.00112257 529.11757264 -409.09130859 527.92285156 C-403.37747915 516.85230702 -412.9012628 493.67746513 -416.40380859 482.67285156 C-417.58544809 479.09260801 -418.82019568 475.53474704 -420.09130859 471.98535156 C-420.37280762 471.19483398 -420.65430664 470.40431641 -420.94433594 469.58984375 C-427.14028082 452.52149934 -434.79668935 433.57840174 -444.81323242 418.37109375 C-446.30708791 415.58256351 -446.30950472 414.33610917 -445.83349609 411.24707031 C-445.70394531 410.35310547 -445.57439453 409.45914062 -445.44091797 408.53808594 C-445.28429687 407.59255859 -445.12767578 406.64703125 -444.96630859 405.67285156 C-444.81742188 404.68736328 -444.66853516 403.701875 -444.51513672 402.68652344 C-443.45315649 395.79933518 -442.17607018 388.96341572 -440.83349609 382.12597656 C-439.93905671 377.35408436 -439.33826486 372.54893966 -438.71630859 367.73535156 C-431.27609638 311.35055455 -415.46014484 266.64226861 -371.36474609 228.96582031 C-354.89156345 214.61547048 -339.13345733 200.61142744 -332.35742188 179.3125 C-328.73740747 168.1727878 -322.41746106 160.7398352 -314.16552734 152.63378906 C-313.09244015 151.56563893 -312.02017417 150.49666323 -310.94868469 149.4269104 C-308.71127568 147.19710023 -306.46761403 144.9738678 -304.21850586 142.75585938 C-301.35567352 139.93257397 -298.50368655 137.09865358 -295.6557188 134.2603817 C-292.91247016 131.52717473 -290.16436696 128.7988714 -287.41552734 126.07128906 C-286.9018479 125.56100536 -286.38816845 125.05072166 -285.85892296 124.52497482 C-280.62569149 119.33342023 -275.36692631 114.20967247 -269.75942993 109.41906738 C-267.02196684 107.06627442 -264.41114737 104.57920912 -261.77880859 102.11035156 C-245.90630749 87.35664779 -237.04848768 82.43767593 -215.13427734 83.20410156 C-212.84901591 83.29525159 -210.56385671 83.38900196 -208.27880859 83.48535156 C-207.09738281 83.53304687 -205.91595703 83.58074219 -204.69873047 83.62988281 C-201.8294863 83.74604654 -198.96036113 83.86456288 -196.09130859 83.98535156 C-195.94435547 83.20828857 -195.79740234 82.43122559 -195.64599609 81.63061523 C-193.69963643 72.34856994 -187.60693409 65.52371921 -181.09130859 58.98535156 C-180.54861328 58.41945313 -180.00591797 57.85355469 -179.44677734 57.27050781 C-173.34312958 51.44500096 -162.41104025 45.03499856 -153.76049805 44.96704102 C-152.91704834 45.01046631 -152.07359863 45.0538916 -151.20458984 45.09863281 C-150.26550781 45.12892578 -149.32642578 45.15921875 -148.35888672 45.19042969 C-146.40752635 45.2613648 -144.45677397 45.35213204 -142.50732422 45.46386719 C-135.0036712 45.65312088 -130.82082626 43.7467658 -125.09130859 38.98535156 C-124.16060547 38.22351563 -123.22990234 37.46167969 -122.27099609 36.67675781 C-121.51044922 35.97421875 -120.74990234 35.27167969 -119.96630859 34.54785156 C-119.13486328 33.78214844 -118.30341797 33.01644531 -117.44677734 32.22753906 C-115.3576754 30.23890803 -113.30712144 28.22316346 -111.27880859 26.17285156 C-104.1791946 19.05668835 -104.1791946 19.05668835 -99.27880859 18.73535156 C-98.22693359 18.81785156 -97.17505859 18.90035156 -96.09130859 18.98535156 C-94.9412847 21.28539936 -94.95751351 22.61788077 -94.96630859 25.17285156 C-94.96373047 25.90890625 -94.96115234 26.64496094 -94.95849609 27.40332031 C-95.12472574 30.63502026 -95.59951923 33.78872067 -96.09130859 36.98535156 C-95.63618896 36.67944092 -95.18106934 36.37353027 -94.7121582 36.05834961 C-71.10378922 20.3321249 -45.60147667 10.34330477 -19.06912231 0.7253418 C-17.6871381 0.20827853 -16.31525577 -0.33624255 -14.95211792 -0.90112305 C-8.76963164 -3.41968577 -5.99271534 -2.63250853 0 0 Z " fill="#BACDD1" transform="translate(1001.09130859375,298.0146484375)"/>
<path d="M0 0 C48.46667396 -0.57796197 96.19649878 15.77898251 135.6484375 44.11328125 C136.71578125 44.87511719 137.783125 45.63695312 138.8828125 46.421875 C144.65925453 50.65157938 150.07616771 55.13727741 155.33984375 59.98828125 C157.47068006 61.94966019 159.64023354 63.8502287 161.8359375 65.73828125 C174.7101241 77.04807466 183.87832462 90.08000284 192.4921875 104.78515625 C195.68801239 110.22767006 199.05421808 115.55093113 202.4609375 120.86328125 C207.37890541 128.54531292 212.25723151 136.24978509 217.0859375 143.98828125 C218.01950073 145.48439941 218.01950073 145.48439941 218.97192383 147.01074219 C220.23395656 149.03403462 221.49575629 151.05747241 222.75732422 153.08105469 C225.88387174 158.09418666 229.01643911 163.10355368 232.1484375 168.11328125 C233.39846676 170.11326296 234.64846676 172.11326297 235.8984375 174.11328125 C236.5171875 175.10328125 237.1359375 176.09328125 237.7734375 177.11328125 C243.3984375 186.11328125 243.3984375 186.11328125 245.27661133 189.1184082 C246.51597328 191.101355 247.75539304 193.08426566 248.99487305 195.06713867 C251.92911176 199.76137932 254.86274863 204.45599272 257.79434204 209.15188599 C258.84192029 210.82986103 259.88970877 212.50770482 260.9375 214.18554688 C262.2594822 216.30250485 263.58111214 218.41968286 264.90234375 220.53710938 C265.4953125 221.48650391 266.08828125 222.43589844 266.69921875 223.4140625 C267.22169189 224.25106689 267.74416504 225.08807129 268.2824707 225.95043945 C269.37947848 227.68741746 270.50886691 229.40392537 271.6484375 231.11328125 C272.06530762 232.98104858 272.06530762 232.98104858 272.30273438 235.10302734 C272.39623169 235.90171234 272.489729 236.70039734 272.58605957 237.52328491 C272.67883179 238.38571808 272.771604 239.24815125 272.8671875 240.13671875 C272.97059448 241.03387604 273.07400146 241.93103333 273.18054199 242.8553772 C273.51083229 245.73220071 273.83013865 248.61010846 274.1484375 251.48828125 C274.5718554 255.24651549 274.99990891 259.00420705 275.4296875 262.76171875 C275.58529648 264.1330899 275.58529648 264.1330899 275.74404907 265.53216553 C276.29778042 270.34210198 276.92531617 275.12235495 277.703125 279.90234375 C278.93995204 287.60327185 279.62233099 295.34564381 280.2734375 303.11328125 C280.33947174 303.88643677 280.40550598 304.65959229 280.47354126 305.45617676 C281.75353764 320.70181644 281.99673827 335.81662592 281.6484375 351.11328125 C286.00791604 349.21891174 288.37331412 347.72777848 290.7734375 343.61328125 C292.71149744 340.32843389 294.38819728 338.15584139 297.6484375 336.11328125 C298.3084375 336.11328125 298.9684375 336.11328125 299.6484375 336.11328125 C299.46015381 336.65855469 299.27187012 337.20382812 299.07788086 337.765625 C297.24064082 343.16825357 295.6381952 348.58920071 294.2109375 354.11328125 C293.99775879 354.93650879 293.78458008 355.75973633 293.56494141 356.60791016 C292.9214314 359.10852957 292.2848455 361.61084664 291.6484375 364.11328125 C291.46104004 364.83612305 291.27364258 365.55896484 291.08056641 366.30371094 C285.6842791 387.21248628 283.83092631 408.67904222 281.6484375 430.11328125 C277.95729564 424.57656846 278.48987484 418.7453898 278.5234375 412.30078125 C278.52682129 411.36806396 278.53020508 410.43534668 278.53369141 409.47436523 C278.62105493 397.6020685 279.33679065 385.93376775 281.24609375 374.19921875 C281.64595434 371.13232687 281.71800729 368.20217992 281.6484375 365.11328125 C280.9471875 365.95890625 280.2459375 366.80453125 279.5234375 367.67578125 C276.6484375 370.11328125 276.6484375 370.11328125 273.4609375 370.23828125 C270.6484375 369.11328125 270.6484375 369.11328125 269.3359375 367.17578125 C268.71305448 364.40112053 268.46944837 361.87834232 268.2734375 359.05078125 C267.95665206 355.21675747 267.95665206 355.21675747 266.0859375 351.92578125 C265.2815625 351.32765625 264.4771875 350.72953125 263.6484375 350.11328125 C249.76483786 338.58549603 240.09657808 324.77448258 231.5234375 309.05078125 C231.13285156 308.34880615 230.74226563 307.64683105 230.33984375 306.92358398 C227.0522751 300.70186031 227.12206816 296.29596438 229.1484375 289.55078125 C231.99314485 278.61897729 231.73107975 267.83341783 226.39453125 257.7421875 C222.03984395 250.70586715 216.23099753 245.95713972 209.5859375 241.17578125 C196.24507584 231.17666185 192.30098105 215.6311023 187.06640625 200.484375 C186.81656982 199.7617749 186.5667334 199.0391748 186.30932617 198.29467773 C185.03358668 194.083842 184.5250729 190.20862853 184.55078125 185.8125 C184.55400391 184.83603516 184.55722656 183.85957031 184.56054688 182.85351562 C184.56892578 181.84611328 184.57730469 180.83871094 184.5859375 179.80078125 C184.59044922 178.77404297 184.59496094 177.74730469 184.59960938 176.68945312 C184.61135566 174.16400243 184.62778185 171.6386722 184.6484375 169.11328125 C183.71902344 169.59539062 182.78960938 170.0775 181.83203125 170.57421875 C180.58349995 171.21256558 179.33479255 171.85056803 178.0859375 172.48828125 C177.17231445 172.96394531 177.17231445 172.96394531 176.24023438 173.44921875 C169.95160463 176.64344338 163.81147624 178.96394179 156.6484375 178.11328125 C153.97644168 176.85399667 151.69685257 175.1899519 149.3359375 173.42578125 C148.65007568 172.93392334 147.96421387 172.44206543 147.25756836 171.93530273 C145.04342768 170.34271029 142.84626594 168.72828668 140.6484375 167.11328125 C139.1679534 166.04378944 137.68617927 164.97608117 136.203125 163.91015625 C133.18100183 161.73624429 130.16477927 159.55450148 127.15234375 157.3671875 C122.84362341 154.2452892 118.50158359 151.17280851 114.1484375 148.11328125 C108.34442436 144.03302647 102.57900274 139.90383604 96.8359375 135.73828125 C70.61785921 116.77195209 43.89644127 98.18621294 16.09765625 81.59423828 C13.47676941 80.00947955 10.89217436 78.37302333 8.3046875 76.734375 C-2.7854107 69.86051233 -11.35400067 66.56192805 -24.3515625 66.11328125 C-44.33535147 64.21886426 -62.62562853 55.80612634 -76.3515625 41.11328125 C-80.03491584 36.32754662 -81.06877655 31.58100993 -80.80078125 25.57421875 C-79.80085023 20.09633575 -76.80239573 16.49157282 -72.8515625 12.73828125 C-63.64598738 8.46426423 -49.74360542 7.06388474 -39.9140625 9.7890625 C-37.9765625 10.61328125 -37.9765625 10.61328125 -35.3515625 12.11328125 C-35.073125 11.06140625 -35.073125 11.06140625 -34.7890625 9.98828125 C-32.78784243 5.9858411 -30.09977192 3.53463825 -26.3515625 1.11328125 C-23.39320311 0.48436274 -21.24049964 0.2269008 -18.2890625 0.23828125 C-17.49395264 0.21983154 -16.69884277 0.20138184 -15.87963867 0.18237305 C-14.07134494 0.14808859 -12.26271043 0.12950313 -10.45410156 0.12353516 C-6.96865461 0.11201574 -3.48502108 0.0551399 0 0 Z " fill="#BACDD1" transform="translate(1144.3515625,323.88671875)"/>
<path d="M0 0 C1.25470093 -0.00630432 2.50940186 -0.01260864 3.80212402 -0.019104 C5.1773289 -0.01552432 6.55253249 -0.01142239 7.92773438 -0.00683594 C9.33256091 -0.00818267 10.73738698 -0.01012326 12.14221191 -0.01263428 C15.08785434 -0.0155852 18.03337556 -0.01128902 20.97900391 -0.00195312 C24.7588694 0.00944151 28.5384509 0.00288185 32.31830597 -0.00909805 C35.219606 -0.01631759 38.12083846 -0.01402832 41.0221405 -0.00884247 C42.41603122 -0.00750622 43.80992804 -0.00915282 45.20381165 -0.01380157 C47.15019619 -0.01886804 49.09660218 -0.00977964 51.04296875 0 C52.15168335 0.00159119 53.26039795 0.00318237 54.40270996 0.00482178 C57.02148438 0.25878906 57.02148438 0.25878906 59.02148438 2.25878906 C59.27545166 4.42199707 59.27545166 4.42199707 59.28027344 7.13574219 C59.28657776 8.15019409 59.29288208 9.164646 59.29937744 10.20983887 C59.29532898 11.30880493 59.29128052 12.407771 59.28710938 13.54003906 C59.28902283 14.66446411 59.29093628 15.78888916 59.29290771 16.9473877 C59.29427055 19.32804589 59.29056732 21.70871149 59.28222656 24.08935547 C59.27152867 27.74365859 59.28211882 31.39747007 59.29492188 35.05175781 C59.2936003 37.36035265 59.29103794 39.66894719 59.28710938 41.97753906 C59.29115784 43.07650513 59.2952063 44.17547119 59.29937744 45.30773926 C59.28992096 46.82941711 59.28992096 46.82941711 59.28027344 48.38183594 C59.27868225 49.27737183 59.27709106 50.17290771 59.27545166 51.09558105 C59.02148438 53.25878906 59.02148438 53.25878906 57.02148438 55.25878906 C54.13232422 55.48583984 54.13232422 55.48583984 50.48242188 55.45410156 C48.52949219 55.44443359 48.52949219 55.44443359 46.53710938 55.43457031 C45.15689842 55.41785836 43.77669009 55.40092845 42.39648438 55.38378906 C41.00846985 55.37375912 39.62044848 55.36463329 38.23242188 55.35644531 C34.82860411 55.33280769 31.42512931 55.29985773 28.02148438 55.25878906 C28.02148438 59.21878906 28.02148438 63.17878906 28.02148438 67.25878906 C29.47031006 67.25355225 30.91913574 67.24831543 32.41186523 67.24291992 C37.76602566 67.22487633 43.12018339 67.21335941 48.47436523 67.20385742 C50.79565889 67.19881573 53.11694935 67.19198255 55.43823242 67.18334961 C58.76677232 67.17127682 62.0952704 67.16555927 65.42382812 67.16113281 C66.46860825 67.15597153 67.51338837 67.15081024 68.58982849 67.14549255 C69.55074905 67.14541702 70.51166962 67.14534149 71.50170898 67.14526367 C72.35220322 67.14304306 73.20269745 67.14082245 74.07896423 67.13853455 C76.02148438 67.25878906 76.02148438 67.25878906 77.02148438 68.25878906 C77.09473606 71.12146473 77.11386643 73.95950806 77.08398438 76.82128906 C77.07947266 77.62759766 77.07496094 78.43390625 77.0703125 79.26464844 C77.05848955 81.26272662 77.04055352 83.26076689 77.02148438 85.25878906 C77.89474365 85.25355225 78.76800293 85.24831543 79.66772461 85.24291992 C82.8973771 85.22591155 86.12700683 85.21335537 89.35668945 85.20385742 C90.75643666 85.19881827 92.15617858 85.1919869 93.5559082 85.18334961 C95.56394214 85.17126587 97.57201395 85.166091 99.58007812 85.16113281 C101.39463501 85.15327759 101.39463501 85.15327759 103.24584961 85.14526367 C106.02148438 85.25878906 106.02148438 85.25878906 107.02148438 86.25878906 C107.12523396 87.84394484 107.16000327 89.43368372 107.16674805 91.0222168 C107.1731279 92.03674423 107.17950775 93.05127167 107.18608093 94.09654236 C107.18775017 95.75273338 107.18775017 95.75273338 107.18945312 97.44238281 C107.19278152 98.56822281 107.19610992 99.69406281 107.19953918 100.85401917 C107.20461331 103.24064728 107.20694736 105.62728251 107.20678711 108.01391602 C107.20897289 111.67703881 107.22712178 115.33986029 107.24609375 119.00292969 C107.24902763 121.31607969 107.25101246 123.62923114 107.25195312 125.94238281 C107.25913864 127.04448593 107.26632416 128.14658905 107.27372742 129.28208923 C107.27065079 130.29976883 107.26757416 131.31744843 107.2644043 132.3659668 C107.26582932 133.26451889 107.26725433 134.16307098 107.26872253 135.08885193 C107.02148438 137.25878906 107.02148438 137.25878906 105.02148438 139.25878906 C102.39598083 139.50602722 102.39598083 139.50602722 99.02709961 139.50170898 C97.76917099 139.50478561 96.51124237 139.50786224 95.2151947 139.5110321 C93.83682066 139.50413488 92.45844842 139.49686796 91.08007812 139.48925781 C89.67285708 139.48806611 88.26563523 139.48761283 86.8584137 139.48786926 C83.90856958 139.48630419 80.9588468 139.47801205 78.0090332 139.46459961 C74.22016609 139.4475941 70.4314322 139.44378569 66.64253139 139.44454479 C63.73699156 139.44427343 60.83148109 139.43879799 57.925951 139.43154335 C56.52844528 139.4283524 55.13093622 139.42638829 53.73342705 139.42564964 C51.7844308 139.42349148 49.83544686 139.41396219 47.88647461 139.40405273 C46.7755394 139.40024094 45.66460419 139.39642914 44.52000427 139.39250183 C42.02148438 139.25878906 42.02148438 139.25878906 41.02148438 138.25878906 C40.92286839 136.63751483 40.89349671 135.01196539 40.89208984 133.38769531 C40.88893768 132.34991943 40.88578552 131.31214355 40.88253784 130.24291992 C40.88557419 128.54921265 40.88557419 128.54921265 40.88867188 126.82128906 C40.88771515 125.67088135 40.88675842 124.52047363 40.88577271 123.33520508 C40.88509069 120.89729762 40.88694647 118.45938837 40.89111328 116.02148438 C40.8964612 112.27502389 40.89116898 108.52868329 40.88476562 104.78222656 C40.8854264 102.42024713 40.88670756 100.05826777 40.88867188 97.69628906 C40.88664764 96.56715088 40.88462341 95.4380127 40.88253784 94.2746582 C40.88726608 92.71799438 40.88726608 92.71799438 40.89208984 91.12988281 C40.89288544 90.21134521 40.89368103 89.29280762 40.89450073 88.34643555 C41.02148438 86.25878906 41.02148438 86.25878906 42.02148438 85.25878906 C44.16707264 85.17103301 46.31552859 85.15183687 48.46289062 85.16113281 C49.76806641 85.16435547 51.07324219 85.16757812 52.41796875 85.17089844 C53.80664127 85.17925505 55.19531315 85.18772001 56.58398438 85.19628906 C57.97656093 85.2013024 59.36913919 85.2058656 60.76171875 85.20996094 C64.18165888 85.22179464 67.60157687 85.23973075 71.02148438 85.25878906 C71.02148438 80.96878906 71.02148438 76.67878906 71.02148438 72.25878906 C40.99148438 72.25878906 10.96148438 72.25878906 -19.97851562 72.25878906 C-19.97851562 76.54878906 -19.97851562 80.83878906 -19.97851562 85.25878906 C-17.89667969 85.2471875 -15.81484375 85.23558594 -13.66992188 85.22363281 C-11.66105264 85.21668171 -9.65218312 85.20976518 -7.64331055 85.20385742 C-6.24356334 85.19881827 -4.84382142 85.1919869 -3.4440918 85.18334961 C-1.43605786 85.17126587 0.57201395 85.166091 2.58007812 85.16113281 C4.39463501 85.15327759 4.39463501 85.15327759 6.24584961 85.14526367 C9.02148438 85.25878906 9.02148438 85.25878906 10.02148438 86.25878906 C10.12010036 87.8800633 10.14947204 89.50561274 10.15087891 91.12988281 C10.15403107 92.16765869 10.15718323 93.20543457 10.16043091 94.2746582 C10.15739456 95.96836548 10.15739456 95.96836548 10.15429688 97.69628906 C10.1552536 98.84669678 10.15621033 99.99710449 10.15719604 101.18237305 C10.15787806 103.6202805 10.15602228 106.05818976 10.15185547 108.49609375 C10.14650755 112.24255424 10.15179977 115.98889483 10.15820312 119.73535156 C10.15754235 122.097331 10.15626119 124.45931035 10.15429688 126.82128906 C10.15632111 127.95042725 10.15834534 129.07956543 10.16043091 130.24291992 C10.15570267 131.79958374 10.15570267 131.79958374 10.15087891 133.38769531 C10.15008331 134.30623291 10.14928772 135.22477051 10.14846802 136.17114258 C10.02148438 138.25878906 10.02148438 138.25878906 9.02148438 139.25878906 C7.06868253 139.36329675 5.11207893 139.39734281 3.15649414 139.40405273 C1.90171768 139.41043259 0.64694122 139.41681244 -0.64585876 139.42338562 C-2.02627525 139.42491418 -3.40669224 139.4260282 -4.78710938 139.42675781 C-6.19336481 139.42996874 -7.59961991 139.43333268 -9.00587463 139.43684387 C-11.9574562 139.44284138 -14.90900847 139.44468314 -17.8605957 139.4440918 C-21.64831608 139.44399015 -25.4358491 139.45764191 -29.22352505 139.47486401 C-32.12910327 139.48596649 -35.03463596 139.48801155 -37.94023323 139.48748207 C-39.33692127 139.48866486 -40.73361038 139.49310328 -42.13027763 139.50081444 C-44.08153764 139.51057831 -46.03285226 139.5064814 -47.98413086 139.50170898 C-49.09586166 139.503134 -50.20759247 139.50455902 -51.35301208 139.50602722 C-53.97851562 139.25878906 -53.97851562 139.25878906 -55.97851562 137.25878906 C-56.22575378 135.08885193 -56.22575378 135.08885193 -56.22143555 132.3659668 C-56.22451218 131.3482872 -56.22758881 130.3306076 -56.23075867 129.28208923 C-56.22357315 128.17998611 -56.21638763 127.077883 -56.20898438 125.94238281 C-56.20852615 124.81558609 -56.20806793 123.68878937 -56.20759583 122.52784729 C-56.20457099 120.1429845 -56.19667783 117.75812373 -56.18432617 115.37329102 C-56.16607444 111.70809998 -56.1638164 108.04316141 -56.1640625 104.37792969 C-56.15914735 102.06607853 -56.15331905 99.75422909 -56.14648438 97.44238281 C-56.14537155 96.33825546 -56.14425873 95.23412811 -56.14311218 94.09654236 C-56.13673233 93.08201492 -56.13035248 92.06748749 -56.1237793 91.0222168 C-56.1180616 89.67558205 -56.1180616 89.67558205 -56.11222839 88.30174255 C-55.97851562 86.25878906 -55.97851562 86.25878906 -54.97851562 85.25878906 C-52.83292736 85.17103301 -50.68447141 85.15183687 -48.53710938 85.16113281 C-47.23193359 85.16435547 -45.92675781 85.16757812 -44.58203125 85.17089844 C-43.19335873 85.17925505 -41.80468685 85.18772001 -40.41601562 85.19628906 C-39.02343907 85.2013024 -37.63086081 85.2058656 -36.23828125 85.20996094 C-32.81831692 85.22179472 -29.39843718 85.23828026 -25.97851562 85.25878906 C-25.99011719 84.04320312 -26.00171875 82.82761719 -26.01367188 81.57519531 C-26.02304841 79.99056142 -26.03214875 78.40592588 -26.04101562 76.82128906 C-26.04939453 76.01884766 -26.05777344 75.21640625 -26.06640625 74.38964844 C-26.07502993 72.34583685 -26.03079712 70.30195005 -25.97851562 68.25878906 C-24.97851562 67.25878906 -24.97851562 67.25878906 -23.03599548 67.13853455 C-22.18550125 67.14075516 -21.33500702 67.14297577 -20.45874023 67.14526367 C-19.01735939 67.14537697 -19.01735939 67.14537697 -17.54685974 67.14549255 C-15.97968956 67.15323448 -15.97968956 67.15323448 -14.38085938 67.16113281 C-13.31686417 67.16254776 -12.25286896 67.16396271 -11.15663147 67.16542053 C-7.74306479 67.17103843 -4.32956263 67.18359395 -0.91601562 67.19628906 C1.39192614 67.20130176 3.69986893 67.20586506 6.0078125 67.20996094 C11.67906149 67.22101367 17.35026198 67.23829029 23.02148438 67.25878906 C23.02148438 63.29878906 23.02148438 59.33878906 23.02148438 55.25878906 C21.71945068 55.27449951 21.71945068 55.27449951 20.39111328 55.29052734 C17.17448909 55.32458622 13.95795671 55.34967673 10.74121094 55.36865234 C9.34827656 55.37871784 7.95536335 55.3923714 6.5625 55.40966797 C4.56194078 55.43389126 2.56122823 55.4441972 0.56054688 55.45410156 C-0.6439209 55.4645752 -1.84838867 55.47504883 -3.08935547 55.48583984 C-5.97851562 55.25878906 -5.97851562 55.25878906 -7.97851562 53.25878906 C-8.23248291 51.09558105 -8.23248291 51.09558105 -8.23730469 48.38183594 C-8.24360901 47.36738403 -8.24991333 46.35293213 -8.25640869 45.30773926 C-8.25236023 44.20877319 -8.24831177 43.10980713 -8.24414062 41.97753906 C-8.2470108 40.29090149 -8.2470108 40.29090149 -8.24993896 38.57019043 C-8.2513018 36.18953223 -8.24759857 33.80886663 -8.23925781 31.42822266 C-8.22855992 27.77391953 -8.23915007 24.12010806 -8.25195312 20.46582031 C-8.25063155 18.15722547 -8.24806919 15.84863094 -8.24414062 13.54003906 C-8.24818909 12.441073 -8.25223755 11.34210693 -8.25640869 10.20983887 C-8.25010437 9.19538696 -8.24380005 8.18093506 -8.23730469 7.13574219 C-8.2357135 6.2402063 -8.23412231 5.34467041 -8.23248291 4.42199707 C-7.64678558 -0.56677597 -4.15304424 0.0059603 0 0 Z " fill="#AEB885" transform="translate(973.978515625,622.7412109375)"/>
<path d="M0 0 C5.13964657 3.94848385 8.28431707 9.15715289 9.8203125 15.3984375 C10.18158901 19.48416001 10.2361323 23.54847142 10.2578125 27.6484375 C10.29068359 28.72996094 10.32355469 29.81148437 10.35742188 30.92578125 C10.41263263 39.24754751 8.81952522 46.18917881 2.94702148 52.37011719 C-2.66203886 57.46400391 -7.49631851 57.75027119 -14.9453125 57.67578125 C-20.7444761 57.17850997 -24.13334953 54.76459829 -27.9921875 50.4609375 C-32.79565208 43.73608708 -32.61580607 37.24848397 -32.66015625 29.27099609 C-32.67951378 27.16731689 -32.74158009 25.06760222 -32.8046875 22.96484375 C-32.93544786 14.62587069 -32.13724132 8.57596813 -26.1796875 2.3984375 C-18.9670756 -3.92513141 -8.30339532 -4.7399949 0 0 Z " fill="#BBCDD1" transform="translate(898.1796875,798.6015625)"/>
<path d="M0 0 C1.6640625 1.38671875 1.6640625 1.38671875 3.6640625 4.38671875 C4.21835937 3.89300781 4.77265625 3.39929688 5.34375 2.890625 C6.06820312 2.24996094 6.79265625 1.60929688 7.5390625 0.94921875 C8.25835938 0.31113281 8.97765625 -0.32695313 9.71875 -0.984375 C13.40567531 -4.07161969 16.45008385 -3.94842077 21.125 -3.89453125 C26.01827276 -3.35250719 28.69617663 -0.66182427 31.9140625 2.82421875 C35.94994294 8.73390082 35.93430682 13.76087403 35.859375 20.71875 C35.8565451 21.71049728 35.85371521 22.70224457 35.85079956 23.7240448 C35.83963054 26.88256034 35.81453177 30.04078932 35.7890625 33.19921875 C35.77902847 35.34439694 35.76990336 37.48957958 35.76171875 39.63476562 C35.73970189 44.88552659 35.7051944 50.13607413 35.6640625 55.38671875 C32.3640625 55.38671875 29.0640625 55.38671875 25.6640625 55.38671875 C25.6547168 54.11030518 25.64537109 52.8338916 25.63574219 51.51879883 C25.59581911 46.77544473 25.53005347 42.03273763 25.45654297 37.28979492 C25.42834686 35.23844729 25.40712557 33.18699128 25.39306641 31.13549805 C25.37161826 28.18351821 25.32495802 25.23283945 25.2734375 22.28125 C25.27220886 21.36648392 25.27098022 20.45171783 25.26971436 19.50923157 C25.17303117 15.29000808 25.0336143 12.97703012 22.75097656 9.33081055 C20.26552786 7.01545865 19.22142405 6.46103362 15.8515625 6.01171875 C12.56015294 6.13984014 12.56015294 6.13984014 10.0090332 8.27807617 C6.70633598 12.65634204 6.93456433 16.14904745 6.95703125 21.5 C6.94190994 22.46955124 6.92678864 23.43910248 6.91120911 24.43803406 C6.86832759 27.52533212 6.85949351 30.61165253 6.8515625 33.69921875 C6.8284186 35.79624996 6.80305349 37.89325791 6.77539062 39.99023438 C6.71253345 45.12248228 6.68020175 50.25411988 6.6640625 55.38671875 C3.0340625 55.38671875 -0.5959375 55.38671875 -4.3359375 55.38671875 C-4.34004639 54.08001221 -4.34415527 52.77330566 -4.34838867 51.42700195 C-4.37018554 46.5717848 -4.42448152 41.71737741 -4.48852539 36.86254883 C-4.51170046 34.76269297 -4.52609994 32.66272095 -4.53149414 30.56274414 C-4.54078713 27.5410935 -4.58178596 24.52126858 -4.62890625 21.5 C-4.6249736 20.56336014 -4.62104095 19.62672028 -4.61698914 18.66169739 C-4.71887146 14.09464779 -4.8532697 12.02099214 -7.69262695 8.28979492 C-10.21522923 6.18952776 -10.21522923 6.18952776 -13.3359375 5.82421875 C-16.99501254 6.51029532 -18.68761426 7.81406189 -21.3359375 10.38671875 C-22.4774997 12.66984315 -22.48928122 14.0215118 -22.54125977 16.56103516 C-22.56120499 17.42177643 -22.58115021 18.2825177 -22.60169983 19.16934204 C-22.61841232 20.09959198 -22.63512482 21.02984192 -22.65234375 21.98828125 C-22.67312485 22.93988129 -22.69390594 23.89148132 -22.71531677 24.87191772 C-22.78081883 27.91844307 -22.8397003 30.96505618 -22.8984375 34.01171875 C-22.94162209 36.07422791 -22.98523636 38.13672812 -23.02929688 40.19921875 C-23.1365009 45.26162829 -23.23776652 50.3241263 -23.3359375 55.38671875 C-26.6359375 55.38671875 -29.9359375 55.38671875 -33.3359375 55.38671875 C-33.3359375 36.57671875 -33.3359375 17.76671875 -33.3359375 -1.61328125 C-30.0359375 -1.61328125 -26.7359375 -1.61328125 -23.3359375 -1.61328125 C-23.0059375 -0.95328125 -22.6759375 -0.29328125 -22.3359375 0.38671875 C-21.4696875 -0.32484375 -21.4696875 -0.32484375 -20.5859375 -1.05078125 C-13.75791683 -5.79246227 -6.50053881 -4.31211041 0 0 Z " fill="#BBCDD1" transform="translate(1005.3359375,799.61328125)"/>
<path d="M0 0 C4.97761372 2.7055498 8.87619382 5.85620823 11.40234375 10.98828125 C13.14739326 17.83424471 12.42309592 24.98266027 12.1640625 31.9765625 C1.6040625 31.9765625 -8.9559375 31.9765625 -19.8359375 31.9765625 C-19.24266621 44.35831867 -19.24266621 44.35831867 -13.8359375 48.9765625 C-10.96985621 50.40960314 -9.02292967 50.28300405 -5.8359375 49.9765625 C-2.22890597 48.10368074 -0.2909919 46.8866713 1.5390625 43.2265625 C1.8484375 42.1128125 1.8484375 42.1128125 2.1640625 40.9765625 C5.1340625 41.3065625 8.1040625 41.6365625 11.1640625 41.9765625 C11.04011226 47.92617425 9.20791912 50.951908 5.1171875 55.2421875 C0.53353266 59.312473 -4.43749742 60.61611922 -10.43359375 60.390625 C-16.34074811 59.37248132 -21.86150694 56.48871013 -25.8359375 51.9765625 C-30.56730538 44.87951068 -30.16973568 38.47461201 -30.1484375 30.1640625 C-30.16455078 28.91818359 -30.18066406 27.67230469 -30.19726562 26.38867188 C-30.20151981 18.36952707 -30.13702723 11.79793268 -24.6796875 5.48046875 C-23.90625 4.83980469 -23.1328125 4.19914063 -22.3359375 3.5390625 C-21.17578125 2.55099609 -21.17578125 2.55099609 -19.9921875 1.54296875 C-14.40287047 -2.51738655 -6.30178461 -2.27419775 0 0 Z " fill="#BBCDD1" transform="translate(762.8359375,797.0234375)"/>
<path d="M0 0 C5.70228548 2.99798271 8.87810649 7.33447185 11.31900024 13.18167114 C12.51793424 17.1784099 12.30912947 21.22098624 12.23828125 25.359375 C12.23403641 26.3039003 12.22979156 27.2484256 12.22541809 28.22157288 C12.20872183 31.21702449 12.17108656 34.21178545 12.1328125 37.20703125 C12.11775396 39.24673503 12.1040676 41.28644942 12.09179688 43.32617188 C12.05884797 48.30755486 12.00712854 53.28842624 11.9453125 58.26953125 C8.3153125 58.26953125 4.6853125 58.26953125 0.9453125 58.26953125 C0.93072998 57.02341064 0.91614746 55.77729004 0.90112305 54.4934082 C0.8430695 49.86193413 0.76583674 45.23094263 0.68286133 40.59985352 C0.64964523 38.59700361 0.62160298 36.59406085 0.59887695 34.59106445 C0.56527016 31.70874531 0.51295102 28.82727457 0.45703125 25.9453125 C0.45064133 25.0524202 0.4442514 24.15952789 0.43766785 23.23957825 C0.32515571 18.46212017 0.09602882 15.11441807 -3.0546875 11.26953125 C-6.75595609 8.80201886 -8.67692282 8.96231969 -13.0546875 9.26953125 C-16.43500339 10.4572098 -16.98685567 11.1677835 -19.0546875 14.26953125 C-19.3804596 16.34690042 -19.3804596 16.34690042 -19.37353516 18.64916992 C-19.39340485 19.52985641 -19.41327454 20.41054291 -19.43374634 21.31791687 C-19.45107315 22.73836052 -19.45107315 22.73836052 -19.46875 24.1875 C-19.48811615 25.15988113 -19.5074823 26.13226227 -19.5274353 27.1341095 C-19.587243 30.24166069 -19.6336214 33.3492489 -19.6796875 36.45703125 C-19.71786617 38.56316725 -19.75691783 40.66928762 -19.796875 42.77539062 C-19.89294561 47.9399773 -19.97697241 53.10463707 -20.0546875 58.26953125 C-23.6846875 58.26953125 -27.3146875 58.26953125 -31.0546875 58.26953125 C-31.0546875 39.12953125 -31.0546875 19.98953125 -31.0546875 0.26953125 C-27.4246875 0.26953125 -23.7946875 0.26953125 -20.0546875 0.26953125 C-19.7246875 1.25953125 -19.3946875 2.24953125 -19.0546875 3.26953125 C-18.1059375 2.60953125 -17.1571875 1.94953125 -16.1796875 1.26953125 C-11.07789841 -1.62217107 -5.54020559 -1.96961682 0 0 Z " fill="#BDCED1" transform="translate(816.0546875,796.73046875)"/>
<path d="M0 0 C3.63 0 7.26 0 11 0 C11.35827881 1.14065918 11.71655762 2.28131836 12.08569336 3.45654297 C13.41277696 7.68005821 14.74206241 11.90287771 16.07202148 16.12548828 C16.64782028 17.95472551 17.22301814 19.78415201 17.79760742 21.61376953 C18.62261353 24.24040674 19.44976354 26.86636036 20.27734375 29.4921875 C20.66332985 30.72350906 20.66332985 30.72350906 21.05711365 31.97970581 C22.31698241 36.07223399 22.31698241 36.07223399 24 40 C24.35827881 38.85934082 24.71655762 37.71868164 25.08569336 36.54345703 C26.41277696 32.31994179 27.74206241 28.09712229 29.07202148 23.87451172 C29.64782028 22.04527449 30.22301814 20.21584799 30.79760742 18.38623047 C31.62261353 15.75959326 32.44976354 13.13363964 33.27734375 10.5078125 C33.53466782 9.68693146 33.79199188 8.86605042 34.05711365 8.02029419 C35.88612829 2.22774341 35.88612829 2.22774341 37 0 C40.3 0 43.6 0 47 0 C45.46343569 7.64361831 43.20649357 14.94798312 40.7890625 22.35546875 C40.37541687 23.62857305 39.9618751 24.9017111 39.5484314 26.17488098 C38.68573833 28.82747591 37.8195197 31.47888985 36.95117188 34.12963867 C35.84371498 37.51236234 34.74873417 40.89898444 33.65677834 44.2867384 C32.80857219 46.91145833 31.95198847 49.53338853 31.09309006 52.15462685 C30.48930848 54.00392952 29.89392971 55.8559689 29.29873657 57.70805359 C26.38196033 66.54262062 23.53447411 72.38922141 16 78 C12.49852959 79.1671568 9.67329964 79.13357453 6 79 C5.34 78.67 4.68 78.34 4 78 C4.66 75.36 5.32 72.72 6 70 C7.2375 69.835 8.475 69.67 9.75 69.5 C12.36639884 68.84473848 13.66886203 68.37907751 15.45703125 66.33203125 C18.53572293 60.70770759 17.97088794 56.39659918 16.24876404 50.37184143 C15.25704275 47.22948581 14.22723594 44.10205753 13.18359375 40.9765625 C12.61971703 39.26368546 12.61971703 39.26368546 12.04444885 37.51620483 C10.84763762 33.88395849 9.64289375 30.25440619 8.4375 26.625 C7.23006665 22.97368319 6.02427019 19.32183346 4.81983948 15.66952515 C4.07073584 13.3996501 3.31959229 11.1304471 2.56626892 8.86196899 C2.22914383 7.84355927 1.89201874 6.82514954 1.54467773 5.77587891 C1.24569077 4.87543854 0.9467038 3.97499817 0.63865662 3.04727173 C0 1 0 1 0 0 Z " fill="#BBCDD1" transform="translate(915,798)"/>
<path d="M0 0 C3.3 0 6.6 0 10 0 C10.01458252 1.21582764 10.02916504 2.43165527 10.04418945 3.68432617 C10.10225098 8.20399078 10.1794836 12.72316127 10.26245117 17.24243164 C10.29566354 19.19677702 10.32370695 21.15121747 10.34643555 23.10571289 C10.38004933 25.91854282 10.43236854 28.73050447 10.48828125 31.54296875 C10.49467117 32.41398727 10.5010611 33.2850058 10.50764465 34.18241882 C10.6517596 40.15602179 11.66290747 43.66290747 16 48 C18.07354839 48.28103071 18.07354839 48.28103071 20.375 48.1875 C21.53128906 48.17783203 21.53128906 48.17783203 22.7109375 48.16796875 C23.46632813 48.11253906 24.22171875 48.05710937 25 48 C25.71414063 47.95488281 26.42828125 47.90976562 27.1640625 47.86328125 C29.26829987 47.11854693 29.26829987 47.11854693 30.08886719 44.54321289 C31.22668677 40.11846057 31.35335465 35.99586081 31.4140625 31.4453125 C31.43342865 30.54376434 31.4527948 29.64221619 31.4727478 28.71334839 C31.53224296 25.85066004 31.57880817 22.98793082 31.625 20.125 C31.66320747 18.17706637 31.7022608 16.22914914 31.7421875 14.28125 C31.83791965 9.52096742 31.92206116 4.7606058 32 0 C35.3 0 38.6 0 42 0 C42 18.81 42 37.62 42 57 C38.7 57 35.4 57 32 57 C32 55.68 32 54.36 32 53 C31.34257813 53.54140625 31.34257813 53.54140625 30.671875 54.09375 C24.69264865 58.46879367 19.27894624 59.10721999 12 58 C6.86546276 55.52441955 3.60560871 51.96791089 0.90283203 46.97192383 C-0.42277195 42.60832804 -0.24528501 38.42107777 -0.1953125 33.88671875 C-0.19106766 32.43239189 -0.19106766 32.43239189 -0.18673706 30.94868469 C-0.17556991 27.86149595 -0.15047152 24.77460061 -0.125 21.6875 C-0.11496573 19.59049899 -0.10584066 17.49349342 -0.09765625 15.39648438 C-0.07564188 10.2642104 -0.04113571 5.1321549 0 0 Z " fill="#BACDD1" transform="translate(1051,798)"/>
<path d="M0 0 C4.46426619 2.59923249 7.75376557 5.80897672 10.62890625 10.078125 C11.44140625 13.453125 11.44140625 13.453125 11.62890625 16.078125 C8.15565444 17.2358756 5.26823177 17.14679152 1.62890625 17.078125 C1.38140625 16.315 1.13390625 15.551875 0.87890625 14.765625 C-0.56167484 11.66837566 -1.32131983 10.60301196 -4.37109375 9.078125 C-7.91165443 8.55598171 -11.163255 8.3987157 -14.37109375 10.203125 C-15.89474202 13.05996551 -15.89064443 14.89587709 -15.37109375 18.078125 C-11.80025913 21.44243747 -7.77377452 23.51789618 -3.37109375 25.578125 C2.84544105 28.48714449 8.89274485 31.45373425 11.62890625 38.078125 C12.31356628 43.06278397 12.20307068 46.88562965 10.00390625 51.453125 C5.90481209 55.98370275 1.72297486 58.7639458 -4.41015625 59.38671875 C-11.66134767 59.64738249 -16.77891215 59.44368425 -22.59375 54.86328125 C-26.44722945 50.99286343 -28.37109375 47.68679951 -28.37109375 42.078125 C-23.42109375 41.583125 -23.42109375 41.583125 -18.37109375 41.078125 C-17.91734375 42.026875 -17.46359375 42.975625 -16.99609375 43.953125 C-15.56871121 47.08126179 -15.56871121 47.08126179 -13.37109375 49.078125 C-11.07103712 49.4355697 -11.07103712 49.4355697 -8.49609375 49.390625 C-7.63242188 49.40738281 -6.76875 49.42414062 -5.87890625 49.44140625 C-2.8844395 49.00762836 -1.53646309 48.16493218 0.62890625 46.078125 C1.54629222 43.16562947 1.54629222 43.16562947 0.62890625 40.078125 C-4.43042721 35.3801725 -10.83493501 32.84891918 -17.06640625 30.01953125 C-21.34949817 27.50334132 -24.11910482 24.58210285 -26.37109375 20.078125 C-26.9023723 15.23565165 -26.89650816 11.23841516 -24.87109375 6.765625 C-18.07103255 -0.54444079 -9.84820671 -3.82895681 0 0 Z " fill="#BBCDD1" transform="translate(1254.37109375,796.921875)"/>
<path d="M0 0 C4.29950785 3.11252715 7.57611683 6.84654207 9.5625 11.8125 C9.5625 12.8025 9.5625 13.7925 9.5625 14.8125 C6.2625 15.1425 2.9625 15.4725 -0.4375 15.8125 C-0.870625 14.86375 -1.30375 13.915 -1.75 12.9375 C-3.23052201 9.61208063 -3.23052201 9.61208063 -6.4375 7.8125 C-12.05003237 7.220182 -12.05003237 7.220182 -17 9.4375 C-18.64836968 11.75234823 -18.64836968 11.75234823 -18.6328125 14.62109375 C-16.72249885 19.72150635 -12.47829699 20.97046313 -7.75 23.25 C-0.39993125 26.83809808 5.78154857 30.25059714 9.5625 37.8125 C10.15543506 43.74185062 8.97498988 48.01205552 5.5625 52.8125 C-1.56629613 58.48643978 -8.58818921 58.68469121 -17.4375 57.8125 C-22.56303913 55.92661461 -26.64027368 52.51184022 -29.4375 47.8125 C-30.1875 44 -30.1875 44 -30.4375 40.8125 C-25.9825 40.3175 -25.9825 40.3175 -21.4375 39.8125 C-20.4609375 41.60286458 -19.484375 43.39322917 -18.5078125 45.18359375 C-17.52339976 46.97868315 -17.52339976 46.97868315 -15.4375 47.8125 C-13.79494209 47.93364921 -12.14697522 47.98790767 -10.5 48 C-9.62472656 48.01417969 -8.74945312 48.02835938 -7.84765625 48.04296875 C-5.17505665 47.97913349 -5.17505665 47.97913349 -2.4375 45.8125 C-2.07387182 43.60524927 -2.07387182 43.60524927 -2.25 41.1875 C-2.27707031 40.37023437 -2.30414062 39.55296875 -2.33203125 38.7109375 C-2.38423828 37.77121094 -2.38423828 37.77121094 -2.4375 36.8125 C-3.44296875 36.43544922 -3.44296875 36.43544922 -4.46875 36.05078125 C-8.06650652 34.55013807 -11.48904135 32.81300153 -14.9375 31 C-15.91396484 30.5040332 -15.91396484 30.5040332 -16.91015625 29.99804688 C-21.86171007 27.39222916 -25.83698097 24.43153113 -28.8125 19.5625 C-30.05859515 14.07968134 -29.25968869 9.39814961 -26.6875 4.4375 C-20.3203519 -2.99083945 -8.53573796 -5.10863116 0 0 Z " fill="#BBCDD1" transform="translate(1134.4375,798.1875)"/>
<path d="M0 0 C3.67051877 3.0880234 6.16115145 6.11657761 6.875 10.9375 C6.91625 11.948125 6.9575 12.95875 7 14 C4.03 14.33 1.06 14.66 -2 15 C-2.9765625 13.20963542 -3.953125 11.41927083 -4.9296875 9.62890625 C-5.91410024 7.83381685 -5.91410024 7.83381685 -8 7 C-12.4131016 6.48031043 -15.86159151 6.14619363 -19.5 8.875 C-23.30265785 14.26209862 -22.2245621 20.41804877 -22.25 26.8125 C-22.270625 28.09705078 -22.29125 29.38160156 -22.3125 30.70507812 C-22.31765625 31.94322266 -22.3228125 33.18136719 -22.328125 34.45703125 C-22.3374707 35.59116455 -22.34681641 36.72529785 -22.35644531 37.89379883 C-21.95601607 41.38329285 -21.09943935 43.20904936 -19 46 C-15.74139091 48.17240606 -15.17949197 48.23564158 -11.5 47.8125 C-10.7265625 47.73644531 -9.953125 47.66039062 -9.15625 47.58203125 C-6.599849 46.89198823 -5.63946783 46.05057305 -4 44 C-2.80972016 41.40084462 -2.80972016 41.40084462 -2 39 C0.97 39.33 3.94 39.66 7 40 C6.87690234 45.90868791 5.08150413 48.99223239 1.0234375 53.265625 C-3.57646173 57.20839577 -8.98186724 58.6265886 -14.9921875 58.34375 C-21.41095056 57.2448178 -25.70415221 53.777962 -29.7734375 48.87890625 C-33.80829513 42.69812116 -33.37231608 36.39951808 -33.37060547 29.24487305 C-33.37496602 27.20340714 -33.41128866 25.1641292 -33.44921875 23.12304688 C-33.47458176 14.56303197 -33.20548237 8.32868986 -27 1.94140625 C-26.34 1.48636719 -25.68 1.03132812 -25 0.5625 C-24.34 0.08941406 -23.68 -0.38367188 -23 -0.87109375 C-16.10892282 -4.7607838 -6.68132415 -3.97229986 0 0 Z " fill="#BBCDD1" transform="translate(1212,799)"/>
<path d="M0 0 C3.63 0 7.26 0 11 0 C11.09297974 8.07595493 11.1639056 16.15168348 11.20724869 24.2280426 C11.22805897 27.97888189 11.25625467 31.72935302 11.30175781 35.47998047 C11.3454525 39.10452862 11.36918636 42.72872427 11.37950897 46.35351562 C11.38685832 47.73133894 11.40120946 49.10914455 11.42292023 50.48681641 C11.54300854 58.42820458 11.39625751 64.2528054 7 71 C3.46725919 74.63108263 -0.58539674 76.29603629 -5.625 76.5 C-9.6208663 76.27839216 -12.56993524 75.11080908 -16 73 C-14.125 67.25 -14.125 67.25 -13 65 C-12.07767578 65.17789063 -12.07767578 65.17789063 -11.13671875 65.359375 C-10.32847656 65.48828125 -9.52023437 65.6171875 -8.6875 65.75 C-7.88699219 65.88921875 -7.08648438 66.0284375 -6.26171875 66.171875 C-3.88543907 66.23938577 -3.88543907 66.23938577 -2.38566589 64.37335205 C-0.62641148 61.36012204 -0.60300781 59.33596869 -0.56762695 55.85449219 C-0.54783279 54.61350769 -0.52803864 53.37252319 -0.50764465 52.09393311 C-0.50087544 50.74491528 -0.49442851 49.3958958 -0.48828125 48.046875 C-0.47143065 46.66252042 -0.45327988 45.27818111 -0.43388367 43.89385986 C-0.3864183 40.25745412 -0.35658692 36.62111028 -0.33044434 32.98449707 C-0.30062107 29.27079037 -0.25409688 25.55729687 -0.20898438 21.84375 C-0.12299084 14.56260586 -0.05562839 7.28144616 0 0 Z " fill="#BDCED1" transform="translate(843,798)"/>
<path d="M0 0 C2.83479565 1.23251985 4.42834197 2.12090195 6.11401367 4.71313477 C8.06846139 9.75786107 7.32594347 15.60044111 7.3125 20.9375 C7.32861328 22.21302734 7.34472656 23.48855469 7.36132812 24.80273438 C7.36197266 26.03185547 7.36261719 27.26097656 7.36328125 28.52734375 C7.36626221 29.64874756 7.36924316 30.77015137 7.37231445 31.92553711 C6.83958269 36.32467878 5.09074242 38.90925758 2 42 C-1.3839801 42.5689878 -4.61286032 42.53256913 -8 42 C-11.34625024 39.47323961 -12.67977847 37.96066458 -14 34 C-14.26196036 29.54588002 -14.23145119 25.0859893 -14.25 20.625 C-14.270625 19.39265625 -14.29125 18.1603125 -14.3125 16.890625 C-14.31765625 15.70210937 -14.3228125 14.51359375 -14.328125 13.2890625 C-14.3374707 12.20318848 -14.34681641 11.11731445 -14.35644531 9.99853516 C-13.94944977 6.57475485 -13.05242781 4.74799283 -11 2 C-7.28957469 -0.47361688 -4.30137325 -0.54607278 0 0 Z " fill="#F1EAD6" transform="translate(890,805)"/>
<path d="M0 0 C3.63 0 7.26 0 11 0 C11 19.14 11 38.28 11 58 C7.37 58 3.74 58 0 58 C0 38.86 0 19.72 0 0 Z " fill="#BDCFD1" transform="translate(1155,797)"/>
<path d="M0 0 C3.81227054 0.0968635 6.1462875 0.89741948 9.1875 3.3125 C12.23174687 7.87887031 11.31533166 11.87965459 11.1875 17.3125 C4.2575 17.3125 -2.6725 17.3125 -9.8125 17.3125 C-9.8125 9.45838526 -9.40199944 0.77065569 0 0 Z " fill="#F0EAD6" transform="translate(752.8125,804.6875)"/>
<path d="M0 0 C2.38795072 0.37247949 3.69764542 0.69515349 5.421875 2.43359375 C9.44359597 8.50166099 12.34808316 14.93769823 15.19628906 21.61499023 C16.58768702 24.87358831 17.93686255 27.89755572 19.80078125 30.921875 C20.19652344 31.60765625 20.59226562 32.2934375 21 33 C20.67 33.66 20.34 34.32 20 35 C10.55017353 29.60992908 10.55017353 29.60992908 8 25 C7.47351505 22.08239591 7.09588651 19.15718799 6.703125 16.21875 C5.71238465 11.68336083 3.63086335 8.12271701 1.2421875 4.1796875 C0 2 0 2 0 0 Z " fill="#EDE8D6" transform="translate(625,873)"/>
<path d="M0 0 C1.9375 1.0625 1.9375 1.0625 3 3 C3.4375 6.5 3.4375 6.5 3 10 C1.4375 12 1.4375 12 -1 13 C-4.625 12.875 -4.625 12.875 -8 12 C-10.31282587 8.53076119 -10.42478586 7.07794425 -10 3 C-7.72054654 -1.02256493 -4.21158603 -0.45124136 0 0 Z " fill="#BBCDD1" transform="translate(1164,777)"/>
<path d="M0 0 C1.9375 1.125 1.9375 1.125 3 3 C3.53852618 6.61581862 3.42236225 8.34111489 1.4375 11.4375 C-1 13 -1 13 -4.625 12.875 C-8 12 -8 12 -10 10 C-10.54587156 3.99541284 -10.54587156 3.99541284 -8.9375 1.0625 C-5.88023824 -0.6140629 -3.4093712 -0.36528977 0 0 Z " fill="#BBCDD1" transform="translate(854,777)"/>
<path d="M0 0 C2.79978423 1.48255241 3.26968761 3.44590352 4.22851562 6.359375 C4.43798828 7.05289063 4.64746094 7.74640625 4.86328125 8.4609375 C5.09208984 9.14671875 5.32089844 9.8325 5.55664062 10.5390625 C7.18908467 15.67102725 7.18908467 15.67102725 6.05078125 19.0859375 C4.71159319 17.46575908 3.37958435 15.83964407 2.05078125 14.2109375 C1.30828125 13.30601562 0.56578125 12.40109375 -0.19921875 11.46875 C-1.94921875 9.0859375 -1.94921875 9.0859375 -1.94921875 7.0859375 C-2.60921875 7.0859375 -3.26921875 7.0859375 -3.94921875 7.0859375 C-4.07421875 4.7109375 -4.07421875 4.7109375 -3.94921875 2.0859375 C-1.94921875 0.0859375 -1.94921875 0.0859375 0 0 Z " fill="#ECE7D6" transform="translate(615.94921875,873.9140625)"/>
</svg>
